<mxfile host="app.diagrams.net" modified="2020-11-05T20:26:00.634Z" agent="5.0 (Macintosh; Intel Mac OS X 10_15_7) AppleWebKit/537.36 (KHTML, like Gecko) Chrome/86.0.4240.183 Safari/537.36" etag="LYk-fXVC68LKtLRY9tXi" version="13.8.5" type="github">
  <diagram id="xkbQ1Bs2xLJokvP2WdEK" name="Page-1">
    <mxGraphModel dx="2544" dy="1007" grid="1" gridSize="10" guides="1" tooltips="1" connect="1" arrows="1" fold="1" page="1" pageScale="1" pageWidth="850" pageHeight="1100" math="0" shadow="0">
      <root>
        <mxCell id="0" />
        <mxCell id="1" parent="0" />
        <mxCell id="RmXKydPQDK2V4iQ8NIrv-1" value="&lt;b&gt;To Do&lt;/b&gt;" style="rounded=0;whiteSpace=wrap;html=1;" parent="1" vertex="1">
          <mxGeometry x="80" y="170" width="120" height="40" as="geometry" />
        </mxCell>
        <mxCell id="RmXKydPQDK2V4iQ8NIrv-2" value="&lt;b&gt;Blocked&lt;/b&gt;" style="rounded=0;whiteSpace=wrap;html=1;" parent="1" vertex="1">
          <mxGeometry x="230" y="170" width="120" height="40" as="geometry" />
        </mxCell>
        <mxCell id="RmXKydPQDK2V4iQ8NIrv-3" value="&lt;b&gt;In Progress&lt;/b&gt;" style="rounded=0;whiteSpace=wrap;html=1;" parent="1" vertex="1">
          <mxGeometry x="380" y="170" width="120" height="40" as="geometry" />
        </mxCell>
        <mxCell id="RmXKydPQDK2V4iQ8NIrv-4" value="&lt;b&gt;Ready for Test&lt;/b&gt;" style="rounded=0;whiteSpace=wrap;html=1;" parent="1" vertex="1">
          <mxGeometry x="530" y="170" width="120" height="40" as="geometry" />
        </mxCell>
        <mxCell id="RmXKydPQDK2V4iQ8NIrv-5" value="&lt;b&gt;In Test&lt;/b&gt;" style="rounded=0;whiteSpace=wrap;html=1;" parent="1" vertex="1">
          <mxGeometry x="680" y="170" width="120" height="40" as="geometry" />
        </mxCell>
        <mxCell id="RmXKydPQDK2V4iQ8NIrv-6" value="&lt;b&gt;Review&lt;/b&gt;" style="rounded=0;whiteSpace=wrap;html=1;" parent="1" vertex="1">
          <mxGeometry x="830" y="170" width="120" height="40" as="geometry" />
        </mxCell>
        <mxCell id="RmXKydPQDK2V4iQ8NIrv-7" value="PO Approval" style="rounded=0;whiteSpace=wrap;html=1;" parent="1" vertex="1">
          <mxGeometry x="980" y="170" width="120" height="40" as="geometry" />
        </mxCell>
        <mxCell id="RmXKydPQDK2V4iQ8NIrv-8" value="Done" style="rounded=0;whiteSpace=wrap;html=1;" parent="1" vertex="1">
          <mxGeometry x="1130" y="170" width="120" height="40" as="geometry" />
        </mxCell>
        <mxCell id="RmXKydPQDK2V4iQ8NIrv-9" value="&lt;b&gt;QA&lt;/b&gt;" style="whiteSpace=wrap;html=1;aspect=fixed;" parent="1" vertex="1">
          <mxGeometry x="-80" y="380" width="120" height="120" as="geometry" />
        </mxCell>
        <mxCell id="RmXKydPQDK2V4iQ8NIrv-10" value="&lt;b&gt;Development&lt;/b&gt;" style="whiteSpace=wrap;html=1;aspect=fixed;" parent="1" vertex="1">
          <mxGeometry x="-80" y="230" width="120" height="120" as="geometry" />
        </mxCell>
        <mxCell id="RmXKydPQDK2V4iQ8NIrv-11" value="&lt;b&gt;Product&lt;/b&gt;" style="whiteSpace=wrap;html=1;aspect=fixed;" parent="1" vertex="1">
          <mxGeometry x="-80" y="530" width="120" height="120" as="geometry" />
        </mxCell>
        <mxCell id="bSUlHb3ETXPQC9Y26Q-u-14" style="edgeStyle=orthogonalEdgeStyle;rounded=0;orthogonalLoop=1;jettySize=auto;html=1;entryX=0;entryY=0.417;entryDx=0;entryDy=0;entryPerimeter=0;" edge="1" parent="1" source="RmXKydPQDK2V4iQ8NIrv-12" target="RmXKydPQDK2V4iQ8NIrv-17">
          <mxGeometry relative="1" as="geometry" />
        </mxCell>
        <mxCell id="RmXKydPQDK2V4iQ8NIrv-12" value="Moves the story to test and assigns QA." style="whiteSpace=wrap;html=1;aspect=fixed;align=center;" parent="1" vertex="1">
          <mxGeometry x="530" y="230" width="120" height="120" as="geometry" />
        </mxCell>
        <mxCell id="bSUlHb3ETXPQC9Y26Q-u-13" value="" style="edgeStyle=orthogonalEdgeStyle;rounded=0;orthogonalLoop=1;jettySize=auto;html=1;" edge="1" parent="1" source="RmXKydPQDK2V4iQ8NIrv-13" target="RmXKydPQDK2V4iQ8NIrv-12">
          <mxGeometry relative="1" as="geometry" />
        </mxCell>
        <mxCell id="RmXKydPQDK2V4iQ8NIrv-13" value="Code is written to meet the requirements highlighted in the story." style="whiteSpace=wrap;html=1;aspect=fixed;align=center;" parent="1" vertex="1">
          <mxGeometry x="380" y="230" width="120" height="120" as="geometry" />
        </mxCell>
        <mxCell id="bSUlHb3ETXPQC9Y26Q-u-11" value="" style="edgeStyle=orthogonalEdgeStyle;rounded=0;orthogonalLoop=1;jettySize=auto;html=1;" edge="1" parent="1" source="RmXKydPQDK2V4iQ8NIrv-14" target="RmXKydPQDK2V4iQ8NIrv-15">
          <mxGeometry relative="1" as="geometry" />
        </mxCell>
        <mxCell id="RmXKydPQDK2V4iQ8NIrv-14" value="Picks up the story for test." style="whiteSpace=wrap;html=1;aspect=fixed;align=center;" parent="1" vertex="1">
          <mxGeometry x="530" y="380" width="120" height="120" as="geometry" />
        </mxCell>
        <mxCell id="bSUlHb3ETXPQC9Y26Q-u-12" value="" style="edgeStyle=orthogonalEdgeStyle;rounded=0;orthogonalLoop=1;jettySize=auto;html=1;" edge="1" parent="1" source="RmXKydPQDK2V4iQ8NIrv-15" target="bSUlHb3ETXPQC9Y26Q-u-1">
          <mxGeometry relative="1" as="geometry" />
        </mxCell>
        <mxCell id="RmXKydPQDK2V4iQ8NIrv-15" value="Manual tests are executed. UI tests are written and executed to satisfy the acceptance criteria. Assign the story to Dev assigne for Review." style="whiteSpace=wrap;html=1;aspect=fixed;align=center;" parent="1" vertex="1">
          <mxGeometry x="680" y="380" width="120" height="120" as="geometry" />
        </mxCell>
        <mxCell id="bSUlHb3ETXPQC9Y26Q-u-10" value="" style="edgeStyle=orthogonalEdgeStyle;rounded=0;orthogonalLoop=1;jettySize=auto;html=1;" edge="1" parent="1" source="RmXKydPQDK2V4iQ8NIrv-16" target="RmXKydPQDK2V4iQ8NIrv-14">
          <mxGeometry relative="1" as="geometry" />
        </mxCell>
        <mxCell id="RmXKydPQDK2V4iQ8NIrv-16" value="Manual tests are identified." style="whiteSpace=wrap;html=1;aspect=fixed;align=center;" parent="1" vertex="1">
          <mxGeometry x="380" y="380" width="120" height="120" as="geometry" />
        </mxCell>
        <mxCell id="RmXKydPQDK2V4iQ8NIrv-17" value="&lt;font style=&quot;font-size: 10px&quot;&gt;Submit PR and review the code with the team. Once PR is approved merge the code to Develop and submit the app to TestFlight. Assign the story to PO for PO Approval.&lt;/font&gt;" style="whiteSpace=wrap;html=1;aspect=fixed;align=center;" parent="1" vertex="1">
          <mxGeometry x="830" y="240" width="120" height="120" as="geometry" />
        </mxCell>
        <mxCell id="bSUlHb3ETXPQC9Y26Q-u-1" value="Run regression suite in Develop *" style="whiteSpace=wrap;html=1;aspect=fixed;align=center;" vertex="1" parent="1">
          <mxGeometry x="830" y="380" width="120" height="120" as="geometry" />
        </mxCell>
        <mxCell id="bSUlHb3ETXPQC9Y26Q-u-3" value="&lt;font style=&quot;font-size: 16px&quot;&gt;JIRA Workflow&lt;/font&gt;" style="text;html=1;strokeColor=none;fillColor=none;align=center;verticalAlign=middle;whiteSpace=wrap;rounded=0;" vertex="1" parent="1">
          <mxGeometry x="630" y="130" width="190" height="20" as="geometry" />
        </mxCell>
        <mxCell id="bSUlHb3ETXPQC9Y26Q-u-6" value="Review the app in TestFlight and mark the story as completed." style="whiteSpace=wrap;html=1;aspect=fixed;align=center;" vertex="1" parent="1">
          <mxGeometry x="980" y="530" width="120" height="120" as="geometry" />
        </mxCell>
        <mxCell id="bSUlHb3ETXPQC9Y26Q-u-7" value="Stories are added to the backlog and assigned to the team during planning." style="whiteSpace=wrap;html=1;aspect=fixed;align=center;" vertex="1" parent="1">
          <mxGeometry x="80" y="530" width="120" height="120" as="geometry" />
        </mxCell>
        <mxCell id="bSUlHb3ETXPQC9Y26Q-u-8" value="Move any stories that cannot be tested due to an impediment." style="whiteSpace=wrap;html=1;aspect=fixed;align=center;" vertex="1" parent="1">
          <mxGeometry x="230" y="380" width="120" height="120" as="geometry" />
        </mxCell>
        <mxCell id="bSUlHb3ETXPQC9Y26Q-u-9" value="Move any stories that cannot be developed due to an impediment." style="whiteSpace=wrap;html=1;aspect=fixed;align=center;" vertex="1" parent="1">
          <mxGeometry x="230" y="230" width="120" height="120" as="geometry" />
        </mxCell>
      </root>
    </mxGraphModel>
  </diagram>
</mxfile>
